<?xml version="1.0" standalone="no"?>
<!DOCTYPE svg PUBLIC "-//W3C//DTD SVG 20010904//EN"
 "http://www.w3.org/TR/2001/REC-SVG-20010904/DTD/svg10.dtd">
<svg version="1.0" xmlns="http://www.w3.org/2000/svg"
 width="2071.000000pt" height="1417.000000pt" viewBox="0 0 2071.000000 1417.000000"
 preserveAspectRatio="xMidYMid meet">

<g transform="translate(0.000000,1417.000000) scale(0.100000,-0.100000)"
fill="#000000" stroke="none">
<path d="M11350 14141 c-30 -10 -96 -37 -147 -59 -51 -23 -136 -55 -190 -72
-287 -92 -301 -99 -430 -222 -67 -64 -103 -90 -133 -98 -55 -15 -113 -69 -140
-132 -22 -51 -22 -52 -6 -142 9 -50 32 -157 52 -237 48 -205 79 -398 109 -675
30 -285 47 -398 80 -523 72 -271 204 -369 521 -388 131 -7 175 4 289 70 158
91 175 120 200 349 42 381 79 609 135 832 40 157 56 206 93 291 28 62 31 80
31 160 -1 50 -11 146 -22 215 -12 69 -26 181 -32 249 -6 68 -17 136 -25 150
-7 14 -42 52 -78 83 -35 31 -71 72 -80 90 -9 19 -25 43 -37 53 -30 27 -120 30
-190 6z m-362 -712 c65 -17 205 -53 312 -80 215 -55 251 -73 290 -142 21 -35
25 -59 28 -148 l4 -106 -43 -6 c-211 -29 -756 -33 -974 -7 -124 14 -140 28
-139 111 4 170 117 378 220 407 57 16 170 5 302 -29z m-388 -551 c23 -38 94
-88 125 -88 13 0 45 18 71 40 58 48 90 52 105 13 5 -15 7 -39 4 -53 -16 -63
-110 -142 -185 -155 -70 -12 -157 53 -180 133 -30 108 13 187 60 110z m951 3
c35 -35 37 -68 8 -128 -24 -49 -78 -98 -128 -114 -95 -32 -257 90 -249 187 4
52 24 54 79 10 75 -61 87 -64 112 -32 13 16 37 31 57 35 29 6 35 11 32 31 -5
47 46 54 89 11z m-448 -52 c26 -12 32 -21 65 -100 22 -51 67 -90 126 -109 39
-13 201 -9 254 6 20 6 22 3 21 -27 -1 -19 -8 -83 -18 -144 l-16 -110 -395 -6
c-271 -3 -415 -9 -458 -19 -54 -11 -65 -11 -78 2 -14 14 -57 172 -70 256 l-6
42 123 0 c185 0 180 -2 303 145 36 43 82 74 113 75 7 0 23 -5 36 -11z m135
-554 c145 -46 200 -129 136 -204 -54 -65 -211 -69 -230 -7 -13 41 -35 56 -86
56 -53 0 -88 -24 -88 -60 0 -12 -10 -25 -25 -32 -66 -30 -195 63 -195 141 0
49 85 110 183 131 73 16 214 4 305 -25z"/>
<path d="M10583 13063 c-13 -2 -30 -14 -38 -26 -13 -19 -13 -23 0 -37 19 -19
244 -27 288 -11 38 15 46 40 18 63 -20 15 -40 18 -135 17 -61 -1 -121 -4 -133
-6z"/>
<path d="M11212 13060 c-17 -7 -22 -17 -20 -32 5 -34 56 -47 184 -47 163 -1
218 25 137 65 -29 14 -66 19 -158 21 -66 2 -130 -2 -143 -7z"/>
<path d="M6165 13639 c-109 -8 -161 -22 -238 -61 -158 -79 -224 -216 -268
-554 -28 -217 -30 -442 -6 -534 25 -91 51 -140 117 -222 87 -106 98 -171 44
-264 -56 -98 -194 -192 -644 -439 -350 -192 -544 -308 -594 -354 -37 -33 -61
-87 -86 -192 -67 -287 -112 -859 -140 -1799 -14 -481 -43 -2289 -36 -2305 3
-8 32 -28 65 -44 85 -43 105 -72 97 -141 -25 -217 -16 -330 34 -462 39 -104
85 -158 214 -253 l27 -20 -35 -560 c-40 -642 -52 -893 -67 -1480 -13 -525 -14
-1850 -1 -2009 9 -105 13 -121 32 -136 21 -16 22 -20 11 -53 -16 -48 -90 -160
-182 -274 -123 -154 -188 -278 -189 -361 0 -36 6 -50 33 -76 28 -29 46 -36
147 -56 66 -13 168 -24 240 -27 152 -5 195 7 333 96 51 33 118 71 149 85 56
25 221 171 288 256 l28 36 26 614 c56 1330 52 1304 392 2590 176 665 264 1031
309 1296 34 194 51 229 80 161 31 -74 63 -342 85 -712 6 -93 15 -543 20 -1000
18 -1593 62 -2598 116 -2682 19 -30 17 -74 -6 -162 -25 -92 -25 -125 -1 -176
23 -51 74 -87 181 -126 116 -42 230 -96 344 -163 111 -66 208 -106 323 -135
165 -42 382 -43 513 -2 72 23 161 78 186 116 15 23 15 27 -6 60 -30 48 -192
192 -380 338 -288 223 -319 258 -288 321 9 17 19 39 22 49 13 41 36 277 51
527 24 409 64 775 135 1245 90 603 115 932 125 1656 3 228 8 459 11 514 l6
101 94 83 c294 261 323 306 379 586 43 215 71 284 129 323 71 48 70 40 69 752
-1 344 -5 654 -8 689 l-7 65 49 -41 c116 -96 245 -172 591 -352 274 -141 348
-189 358 -228 8 -32 -1 -101 -91 -653 -90 -554 -95 -591 -95 -691 0 -76 18
-139 39 -139 4 0 20 -11 34 -24 22 -20 26 -31 21 -56 -5 -22 1 -48 21 -93 20
-44 30 -83 33 -137 2 -41 12 -98 23 -127 10 -29 21 -83 25 -120 3 -37 28 -174
54 -303 48 -234 63 -301 139 -625 96 -413 153 -858 200 -1580 27 -401 39 -616
51 -880 5 -121 12 -256 15 -300 29 -470 54 -743 71 -777 20 -38 61 -64 132
-84 68 -19 102 -44 102 -76 0 -11 -17 -53 -37 -92 -66 -129 -73 -146 -91 -211
-14 -54 -15 -73 -4 -121 14 -67 24 -81 77 -105 53 -25 161 -24 340 1 250 35
289 49 305 110 7 25 33 64 76 111 74 80 89 108 103 200 14 81 26 471 26 784
-1 266 -7 320 -66 590 -79 361 -74 270 -73 1505 1 1124 9 1489 41 1833 9 97
18 176 20 174 10 -11 68 -304 89 -456 36 -263 110 -920 138 -1236 58 -651 61
-694 60 -1125 0 -363 -3 -438 -21 -595 -39 -321 -46 -453 -47 -840 0 -459 21
-697 70 -801 37 -77 222 -231 319 -264 74 -25 234 -27 338 -4 133 30 210 81
244 162 24 57 -12 148 -128 322 -35 52 -67 100 -71 106 -5 8 36 30 122 65
l130 53 0 940 c0 1070 13 1760 40 2116 5 63 18 223 29 355 29 338 48 608 66
920 8 149 22 319 31 379 9 60 13 129 9 152 -4 32 -1 51 16 84 37 71 29 160
-116 1245 -82 621 -83 629 -78 638 7 12 187 8 338 -8 182 -19 358 -19 419 -1
26 8 72 33 101 55 30 23 55 40 55 37 0 -2 6 -38 14 -79 23 -118 113 -284 212
-387 84 -88 86 -96 96 -395 15 -470 40 -738 103 -1077 92 -500 232 -1429 311
-2057 33 -263 36 -300 30 -456 -18 -510 -168 -1309 -291 -1555 -45 -88 -171
-185 -414 -314 -162 -87 -206 -113 -274 -165 -89 -66 -111 -135 -60 -186 72
-71 183 -94 375 -76 189 17 334 57 508 140 80 38 168 74 195 81 28 6 124 15
215 20 186 9 271 30 331 79 45 38 65 80 95 198 13 52 35 118 49 148 38 81 60
306 85 870 34 765 42 935 55 1170 14 239 47 662 78 995 l13 135 128 -390 c331
-1006 370 -1215 481 -2590 29 -350 47 -512 66 -575 15 -49 50 -86 89 -95 36
-8 80 -58 81 -93 8 -144 -33 -211 -350 -562 -67 -74 -138 -158 -157 -186 -34
-50 -35 -52 -21 -85 30 -71 88 -100 247 -124 125 -19 327 -19 408 0 136 32
273 112 479 282 296 242 326 280 305 390 -24 121 -40 556 -77 2013 l-23 925
-121 640 c-187 987 -232 1280 -235 1510 -1 151 3 170 45 215 l32 33 -6 101
c-4 55 -40 423 -81 816 l-74 715 69 100 c185 270 261 387 298 460 146 287 156
512 61 1370 -71 632 -147 1028 -226 1163 -41 70 -181 137 -545 262 -296 101
-373 141 -485 254 -206 205 -233 315 -143 571 41 116 43 125 47 263 11 377
-87 611 -303 724 -118 61 -199 80 -375 85 -272 9 -347 -14 -473 -146 -133
-140 -164 -222 -153 -416 17 -316 88 -658 192 -917 93 -233 100 -273 63 -343
-68 -128 -174 -224 -454 -411 -230 -152 -296 -208 -329 -273 -106 -209 -158
-713 -182 -1770 l-7 -305 -92 460 c-137 676 -257 1231 -312 1437 -20 77 -32
103 -54 122 -37 30 -218 130 -439 240 -299 149 -455 244 -558 340 l-59 55 -7
-133 c-28 -545 -116 -1062 -321 -1872 -105 -416 -106 -429 -45 -445 94 -25
145 -124 160 -309 14 -177 50 -287 114 -359 26 -28 39 -54 46 -92 30 -156 -1
-227 -184 -425 -107 -116 -176 -165 -246 -173 -33 -5 -57 -13 -63 -24 -8 -12
-7 -53 1 -143 12 -113 11 -130 -3 -151 -29 -45 -105 -23 -105 29 0 12 7 69 15
127 8 58 15 113 15 123 0 15 -12 17 -122 17 -144 0 -371 -16 -436 -31 -25 -5
-51 -17 -57 -25 -39 -54 -314 3 -327 67 -17 89 74 357 149 440 45 50 80 56
165 29 85 -26 112 -20 229 51 46 29 179 99 295 156 117 57 217 110 224 118 15
18 5 35 -22 35 -17 0 -20 4 -15 30 4 16 2 32 -4 36 -10 6 -49 -23 -49 -37 0
-4 -5 -20 -12 -36 l-11 -28 -6 30 c-9 45 -55 62 -217 81 -311 35 -426 86 -484
216 -29 65 -36 176 -16 267 19 90 42 131 84 151 27 13 32 20 32 53 l0 37 88
-1 c48 0 145 -6 215 -13 l129 -12 -5 26 c-2 14 -20 108 -40 210 -80 414 -201
1224 -217 1450 -11 160 -12 379 -2 568 4 67 5 122 2 122 -3 0 -54 -36 -112
-79 -188 -139 -426 -246 -816 -366 -305 -93 -333 -111 -397 -250 -119 -254
-649 -1631 -752 -1950 -8 -24 -11 -1 -17 110 -58 1155 -183 1991 -323 2154
-47 56 -171 115 -578 276 -351 140 -430 176 -521 241 -74 52 -109 92 -140 159
-43 90 -27 262 33 364 14 24 32 67 40 95 20 73 31 352 25 633 l-5 242 -142
141 c-94 92 -158 147 -187 160 -79 35 -284 53 -453 39z m3354 -4316 c20 -74
42 -332 48 -560 3 -128 3 -233 -1 -233 -13 0 -132 63 -196 105 -82 53 -140
103 -140 121 0 8 49 124 109 257 60 133 117 266 127 295 10 28 24 52 31 52 7
0 17 -17 22 -37z m2730 -390 c17 -25 31 -52 31 -59 0 -39 -85 -4 -96 40 -6 25
10 66 25 66 5 0 23 -21 40 -47z"/>
<path d="M1615 13630 c-159 -33 -282 -130 -351 -275 -68 -143 -127 -446 -128
-660 l-1 -120 92 -185 c132 -266 186 -415 168 -469 -20 -64 -144 -139 -660
-404 -408 -208 -494 -256 -526 -290 -64 -68 -91 -252 -124 -827 -83 -1463 -93
-1747 -76 -2105 29 -600 96 -1135 142 -1135 17 0 37 -61 48 -152 6 -49 23
-120 40 -165 56 -144 173 -309 237 -334 29 -10 286 -54 379 -64 102 -11 95 -1
95 -135 0 -164 54 -431 185 -905 155 -565 244 -1192 290 -2040 28 -512 42
-620 100 -733 53 -103 77 -239 79 -447 1 -200 2 -198 -105 -325 -151 -181
-169 -311 -57 -417 44 -40 79 -51 212 -63 98 -9 588 -30 694 -30 l39 0 6 238
c7 277 17 335 82 466 58 118 75 187 75 311 0 168 -31 326 -161 830 l-81 310 4
1465 c3 983 8 1473 14 1489 10 23 18 11 96 -145 163 -323 404 -890 454 -1071
14 -51 17 -155 18 -838 2 -429 8 -888 14 -1020 37 -762 52 -870 147 -1098 21
-48 56 -117 80 -152 55 -85 64 -140 74 -483 5 -144 11 -266 15 -269 13 -14
441 -25 538 -14 169 19 359 106 416 191 20 30 23 44 19 95 -6 83 -34 133 -136
240 -92 96 -131 160 -131 213 0 18 18 74 39 125 111 261 146 620 145 1497 -2
1012 -40 1552 -169 2360 -82 516 -115 851 -117 1175 -1 238 10 317 47 341 28
19 47 63 79 191 84 335 159 897 159 1208 1 254 -59 746 -169 1400 -83 489
-137 729 -198 875 -55 130 -81 167 -135 195 -76 38 -324 118 -602 195 -549
150 -669 220 -669 390 0 62 49 241 106 384 70 174 74 222 45 426 -76 514 -136
630 -366 713 -138 49 -387 72 -510 47z"/>
<path d="M18122 13430 c-181 -48 -336 -178 -422 -355 -94 -193 -109 -422 -49
-704 41 -190 83 -300 179 -466 33 -57 55 -159 45 -211 -10 -56 -76 -113 -335
-288 -295 -199 -409 -287 -499 -381 -120 -126 -137 -177 -175 -510 -69 -603
-114 -1188 -148 -1905 -14 -314 -14 -1447 1 -1810 16 -386 26 -428 123 -521
65 -62 118 -83 201 -77 69 4 152 40 317 138 47 27 90 50 97 50 19 0 28 -24 76
-215 118 -464 255 -1149 317 -1580 40 -277 76 -482 94 -536 25 -72 44 -209 66
-459 39 -446 81 -728 126 -855 56 -154 55 -151 64 -415 5 -140 13 -269 18
-286 5 -17 21 -43 36 -57 56 -56 21 -128 -143 -301 -134 -141 -191 -234 -191
-311 0 -86 47 -99 370 -99 276 0 380 12 444 49 29 17 64 26 116 31 149 13 167
38 186 253 10 117 16 149 33 172 35 47 41 104 41 434 0 785 -53 1443 -159
1968 -59 291 -95 609 -131 1177 -11 173 -29 428 -40 565 -23 283 -25 385 -9
385 46 0 183 -638 309 -1450 48 -307 100 -592 135 -736 35 -143 61 -301 85
-520 26 -228 52 -363 88 -452 27 -66 27 -70 27 -302 1 -254 2 -259 60 -339 34
-47 45 -92 45 -191 0 -195 50 -484 95 -550 31 -46 40 -83 65 -275 12 -88 24
-163 28 -167 12 -11 453 -48 577 -48 195 1 342 29 386 76 18 19 20 30 15 69
-11 68 -87 212 -177 332 -44 58 -82 117 -85 129 -4 17 2 33 19 54 44 52 45
102 12 470 -23 250 -35 515 -45 954 -11 495 -16 537 -98 796 -102 322 -144
502 -177 763 -60 478 -98 1030 -93 1365 4 274 4 277 95 331 114 69 245 215
297 332 48 109 113 450 161 839 54 448 72 749 81 1350 l7 445 -241 770 c-132
424 -250 802 -262 842 -37 123 -95 159 -505 313 -323 121 -556 215 -680 275
-120 57 -205 126 -205 164 0 12 13 50 29 84 85 182 160 460 168 622 10 202
-52 358 -221 558 -156 185 -422 275 -644 217z"/>
<path d="M11207 8390 c-86 -77 -128 -108 -192 -140 -59 -29 -37 -80 35 -80 70
0 185 86 220 165 17 37 37 135 29 135 -2 0 -44 -36 -92 -80z"/>
</g>
</svg>
