<?xml version="1.0" standalone="no"?>
<!DOCTYPE svg PUBLIC "-//W3C//DTD SVG 20010904//EN"
 "http://www.w3.org/TR/2001/REC-SVG-20010904/DTD/svg10.dtd">
<svg version="1.0" xmlns="http://www.w3.org/2000/svg"
 width="450.000000pt" height="254.000000pt" viewBox="0 0 450.000000 254.000000"
 preserveAspectRatio="xMidYMid meet">

<g transform="translate(0.000000,254.000000) scale(0.100000,-0.100000)"
fill="#000000" stroke="none">
<path d="M2400 2441 c-19 -10 -63 -27 -98 -36 -46 -13 -70 -27 -92 -51 -16
-19 -36 -34 -43 -34 -20 0 -47 -33 -47 -57 0 -11 9 -55 20 -99 12 -43 25 -127
30 -186 20 -214 46 -261 156 -273 58 -6 69 -4 109 20 48 28 51 33 60 138 8 93
40 246 61 290 15 31 16 45 6 106 -7 38 -12 84 -12 100 0 21 -7 35 -25 47 -13
9 -27 24 -30 35 -8 24 -48 24 -95 0z m-35 -208 c28 -8 64 -17 80 -20 45 -8 65
-31 65 -73 l0 -37 -85 -6 c-47 -3 -123 -3 -170 0 -78 5 -85 8 -85 27 0 37 19
89 41 112 24 26 54 25 154 -3z m-155 -151 c0 -4 9 -13 20 -20 17 -10 23 -10
36 3 21 21 34 19 34 -4 0 -22 -35 -51 -62 -51 -9 0 -24 7 -32 16 -18 17 -22
64 -6 64 6 0 10 -3 10 -8z m286 -7 c10 -24 -23 -65 -51 -65 -28 0 -65 32 -65
55 0 20 9 19 33 -2 15 -13 21 -15 24 -5 3 6 11 12 19 12 9 0 12 5 9 10 -3 6 1
10 10 10 8 0 18 -7 21 -15z m-122 -30 c8 -32 40 -48 85 -42 l37 5 -5 -42 -6
-41 -120 0 c-66 0 -127 -4 -137 -8 -17 -9 -20 -3 -33 59 l-6 30 48 0 c43 -1
49 2 68 31 25 40 60 44 69 8z m41 -147 c49 -22 37 -68 -16 -68 -19 0 -29 5
-29 15 0 9 -9 15 -25 15 -16 0 -25 -6 -25 -15 0 -21 -34 -19 -54 4 -46 51 66
87 149 49z"/>
<path d="M2197 2133 c-17 -16 -3 -23 43 -23 38 0 50 4 50 15 0 11 -11 15 -43
15 -24 0 -47 -3 -50 -7z"/>
<path d="M2387 2134 c-14 -15 7 -24 54 -24 48 0 65 12 33 24 -21 8 -79 8 -87
0z"/>
<path d="M800 2356 c5 -7 6 -17 2 -22 -4 -5 -3 -6 2 -2 5 4 15 3 22 -2 9 -8
12 -5 11 12 -2 16 -9 23 -25 25 -17 1 -20 -2 -12 -11z"/>
<path d="M2140 1695 c-49 -37 -133 -72 -248 -105 -48 -14 -77 -28 -86 -43 -18
-27 -164 -400 -222 -567 -24 -69 -44 -140 -44 -159 0 -51 58 -99 205 -173 100
-49 125 -66 125 -82 0 -12 -14 -100 -30 -196 -35 -208 -36 -221 -10 -238 11
-6 18 -17 16 -24 -3 -7 -7 -34 -10 -60 l-6 -48 220 0 219 0 12 43 c10 35 13
39 20 22 4 -11 8 -30 8 -42 l1 -23 194 0 c192 0 194 0 200 23 3 12 6 33 6 46
0 14 7 32 16 42 14 15 12 41 -20 282 -20 145 -36 269 -36 274 0 5 30 6 73 2
131 -14 152 -12 187 18 32 26 32 28 27 97 -4 67 -131 677 -146 703 -3 7 -62
40 -131 73 -69 34 -139 75 -156 91 l-31 30 -6 -107 c-7 -114 -48 -328 -96
-506 -22 -85 -26 -108 -15 -108 30 0 54 -39 54 -88 0 -46 20 -105 41 -117 5
-4 9 -24 9 -45 0 -32 -8 -47 -51 -94 -36 -40 -58 -56 -76 -56 -25 0 -26 -2
-20 -50 5 -45 4 -50 -14 -50 -18 0 -19 5 -13 47 l6 48 -91 -3 c-50 -2 -91 -8
-91 -13 0 -12 -42 -12 -75 1 -24 9 -25 13 -19 47 4 21 15 55 26 76 19 37 34
43 73 28 14 -6 31 -1 60 19 22 14 66 37 97 51 53 22 73 39 47 39 -5 0 -7 4 -4
10 3 5 2 10 -4 10 -5 0 -12 -8 -14 -17 -4 -15 -5 -15 -6 -2 -1 12 -16 18 -65
22 -96 9 -132 27 -145 73 -12 44 3 114 25 114 8 0 11 6 8 15 -5 12 5 13 62 8
l67 -6 -6 24 c-11 43 -56 322 -68 422 -6 54 -9 133 -7 177 3 44 4 80 4 79 -1
0 -21 -16 -46 -34z m-235 -770 c4 -64 5 -118 2 -121 -6 -6 -102 54 -101 64 0
4 17 42 37 85 20 43 37 83 37 88 0 6 4 8 9 5 5 -3 12 -58 16 -121z m800 -24
c-10 -10 -34 10 -29 24 6 14 8 13 19 -2 8 -10 12 -20 10 -22z"/>
<path d="M3999 1257 c7 -7 7 -15 1 -22 -7 -8 -1 -12 20 -12 21 0 27 4 20 12
-6 7 -6 15 1 22 6 6 0 10 -21 10 -21 0 -27 -4 -21 -10z"/>
<path d="M2385 759 c-16 -16 -38 -32 -47 -35 -21 -6 -23 -20 -4 -27 23 -9 73
29 79 60 3 15 5 29 4 29 -1 1 -15 -11 -32 -27z"/>
<path d="M240 248 c6 -7 6 -16 -1 -24 -7 -9 -4 -12 13 -11 16 2 23 9 25 25 1
17 -2 20 -11 13 -8 -7 -17 -7 -24 -1 -9 7 -9 7 -2 -2z"/>
</g>
</svg>
