<?xml version="1.0" standalone="no"?>
<!DOCTYPE svg PUBLIC "-//W3C//DTD SVG 20010904//EN"
 "http://www.w3.org/TR/2001/REC-SVG-20010904/DTD/svg10.dtd">
<svg version="1.0" xmlns="http://www.w3.org/2000/svg"
 width="497.000000pt" height="340.000000pt" viewBox="0 0 497.000000 340.000000"
 preserveAspectRatio="xMidYMid meet">

<g transform="translate(0.000000,340.000000) scale(0.100000,-0.100000)"
fill="#000000" stroke="none">
<path d="M2504 3383 c-64 -22 -104 -61 -115 -113 -15 -65 6 -202 37 -248 13
-19 24 -47 24 -63 0 -20 15 -41 57 -82 l58 -55 -45 -54 c-31 -38 -35 -45 -12
-24 27 26 32 27 38 12 7 -17 -12 -128 -26 -155 -8 -15 -37 72 -80 237 l-11 44
-32 -36 c-24 -26 -59 -46 -142 -79 -89 -35 -113 -49 -127 -73 -11 -19 -29 -98
-44 -195 -28 -178 -29 -276 -4 -574 10 -131 14 -145 50 -220 38 -79 38 -81 28
-144 -10 -55 -9 -65 5 -76 9 -7 22 -46 32 -101 9 -49 30 -143 46 -209 33 -136
52 -318 70 -700 7 -137 16 -260 20 -272 5 -13 20 -24 38 -28 36 -8 38 -18 11
-63 -11 -18 -20 -45 -20 -61 0 -43 21 -54 87 -47 91 11 113 17 113 31 0 8 12
25 26 39 26 24 27 27 31 180 4 137 2 167 -19 258 -22 99 -23 117 -21 453 2
193 6 388 11 435 l8 85 12 -55 c20 -86 61 -479 69 -647 4 -107 2 -184 -8 -260
-15 -116 -17 -302 -4 -394 6 -50 12 -61 51 -93 37 -31 49 -36 96 -36 56 0 94
14 111 42 12 18 5 38 -33 96 l-22 32 36 15 36 15 0 373 c1 251 5 422 16 527 8
85 17 214 21 287 5 109 8 132 22 136 14 3 15 15 10 83 -5 74 -3 82 22 119 68
102 84 215 76 548 -6 267 -19 426 -38 484 -9 30 -17 35 -82 54 -138 39 -205
69 -236 105 -42 47 -46 73 -22 121 19 36 21 50 15 156 l-7 116 -37 36 c-54 53
-118 65 -196 38z m240 -523 c-4 -19 -11 -43 -16 -52 -5 -10 -5 -18 0 -18 9 0
3 -54 -19 -179 l-12 -64 -48 99 c-43 91 -46 100 -31 117 14 16 16 16 36 0 12
-10 5 -1 -14 20 l-35 38 60 54 c54 48 61 52 73 37 8 -10 10 -29 6 -52z"/>
<path d="M364 3286 c-48 -22 -70 -62 -83 -153 -10 -71 -10 -87 3 -110 36 -67
57 -118 54 -137 -2 -16 -36 -37 -134 -86 -72 -36 -138 -71 -147 -78 -21 -18
-26 -53 -37 -262 -5 -102 -12 -237 -16 -300 -7 -128 17 -412 35 -418 6 -2 11
-18 11 -34 0 -37 43 -115 68 -122 9 -3 38 -8 65 -12 l47 -6 0 -42 c0 -22 18
-106 40 -186 44 -157 66 -311 76 -530 5 -98 11 -140 22 -152 8 -10 17 -46 20
-86 4 -66 3 -70 -27 -104 -34 -39 -39 -64 -17 -93 12 -17 30 -20 123 -23 l108
-4 1 69 c0 43 6 77 16 93 31 49 30 99 -4 231 l-32 124 -1 358 c0 196 3 357 6
357 7 0 65 -124 110 -236 30 -75 31 -84 26 -184 -2 -58 -1 -198 4 -311 6 -169
11 -215 28 -259 11 -29 25 -56 31 -60 6 -4 12 -43 13 -91 l2 -84 73 -3 c59 -2
83 1 118 18 36 18 44 27 44 49 0 17 -10 37 -26 52 -37 34 -46 55 -35 76 29 55
41 157 41 360 -1 255 -12 406 -45 601 -28 169 -34 342 -12 342 18 0 57 235 57
340 0 84 -52 425 -78 510 -9 30 -24 62 -33 71 -9 9 -74 31 -145 50 -153 40
-179 58 -168 116 4 21 15 56 25 78 16 37 17 48 5 120 -15 96 -27 120 -67 141
-44 22 -127 28 -165 10z"/>
<path d="M1433 3286 c-48 -22 -64 -56 -74 -154 -10 -94 -3 -131 32 -168 28
-30 17 -66 -32 -99 -22 -14 -86 -51 -142 -81 -56 -31 -110 -63 -119 -72 -31
-31 -49 -250 -55 -658 l-6 -372 22 -12 c19 -10 22 -17 16 -50 -9 -52 10 -115
42 -138 l26 -19 -14 -224 c-15 -237 -19 -779 -6 -779 17 0 4 -29 -38 -80 -52
-63 -60 -106 -22 -114 87 -18 113 -17 151 9 20 14 40 25 44 25 5 0 23 15 41
34 l32 33 9 214 c10 248 12 258 95 570 35 130 66 262 70 293 19 147 45 -39 46
-321 0 -324 15 -687 27 -691 7 -2 6 -14 -1 -37 -12 -42 -1 -59 50 -76 20 -6
56 -24 82 -40 59 -37 149 -48 204 -26 20 9 37 23 37 31 0 8 -36 42 -79 76 -89
67 -97 76 -83 93 5 7 12 68 15 137 3 69 17 202 32 295 20 127 27 217 30 357
l3 188 52 47 c47 44 52 53 63 117 10 51 18 71 31 76 17 6 18 20 17 191 -4 410
-27 695 -66 825 -14 48 -18 53 -72 77 -32 14 -90 37 -129 52 -89 33 -124 64
-124 111 0 19 7 46 16 59 12 18 15 49 15 127 l-1 102 -40 40 c-36 37 -44 40
-102 43 -40 2 -75 -2 -95 -11z"/>
<path d="M3390 3243 c-29 -10 -69 -56 -75 -85 -10 -45 14 -197 41 -257 13 -29
24 -62 24 -71 0 -28 -45 -76 -109 -114 -31 -19 -65 -44 -76 -56 -31 -34 -46
-157 -52 -435 -5 -248 -4 -263 15 -300 11 -22 29 -49 41 -59 19 -17 21 -30 21
-121 0 -66 9 -148 24 -231 23 -120 67 -417 81 -545 11 -103 -38 -387 -76 -441
-12 -16 -55 -46 -100 -68 -84 -43 -100 -68 -57 -91 34 -18 143 -4 193 26 31
18 58 25 94 25 71 0 99 15 107 59 4 20 11 42 17 49 6 8 14 114 19 250 5 130
14 298 21 372 l12 135 53 -160 c55 -170 71 -260 92 -530 14 -174 15 -181 40
-188 25 -6 27 -43 3 -77 -9 -14 -38 -48 -65 -77 -26 -28 -48 -55 -48 -60 1
-24 23 -35 77 -40 95 -9 126 6 252 117 19 18 22 27 16 53 -4 18 -10 181 -14
362 l-8 330 -43 230 c-45 235 -55 335 -33 342 7 3 10 17 8 36 -3 18 -12 107
-21 199 l-17 167 52 75 c65 94 74 138 61 284 -21 229 -45 363 -70 390 -11 11
-63 34 -117 52 -83 27 -104 38 -135 73 -42 47 -46 75 -22 132 19 46 11 144
-15 188 -23 41 -80 67 -143 66 -29 0 -60 -3 -68 -6z"/>
<path d="M4313 3230 c-54 -33 -83 -89 -83 -163 0 -62 24 -150 49 -180 6 -8 13
-28 14 -44 2 -25 -7 -34 -77 -80 -127 -84 -153 -111 -160 -169 -32 -262 -48
-535 -44 -776 4 -254 4 -258 28 -283 30 -32 60 -32 111 1 23 14 42 24 44 22
11 -12 77 -319 90 -420 9 -68 20 -132 25 -143 5 -11 11 -54 14 -95 10 -124 22
-204 36 -230 8 -14 12 -52 11 -91 -1 -38 3 -70 8 -74 20 -12 11 -37 -23 -69
-40 -38 -59 -72 -52 -92 4 -11 27 -14 95 -14 49 0 93 5 96 10 3 6 19 10 35 10
31 0 40 14 40 65 0 19 5 37 11 41 8 5 10 59 6 188 -6 188 -17 295 -42 406 -8
36 -19 139 -25 230 -5 91 -13 186 -15 213 -3 26 -2 47 2 47 11 0 48 -170 73
-340 12 -80 28 -165 35 -190 7 -25 16 -81 20 -125 4 -44 13 -91 20 -105 8 -15
11 -45 8 -78 -4 -40 -2 -57 11 -71 9 -10 15 -31 14 -47 -3 -39 13 -134 22
-134 4 0 11 -24 14 -54 l7 -54 75 -7 c80 -8 141 -2 158 15 11 11 -9 57 -46
103 -17 21 -20 30 -10 36 10 6 11 31 2 117 -5 60 -10 162 -10 227 0 99 -4 131
-24 190 -13 40 -29 99 -35 132 -14 80 -31 282 -31 372 0 62 3 74 20 83 36 19
73 64 82 99 27 99 50 307 51 456 l2 160 -58 185 c-32 102 -61 196 -65 210 -6
21 -27 32 -144 75 -75 28 -150 59 -165 71 -25 19 -27 23 -15 45 19 38 42 121
42 156 0 43 -14 77 -51 123 -50 61 -133 79 -196 40z"/>
</g>
</svg>
